Coordinates
version=1
nRows=7
nColumns=40
inDegrees=yes

Units are S.I. units (second, meters, Newtons, ...)
Angles are in degrees.

endheader
time	pelvis_tilt	pelvis_list	pelvis_rotation	pelvis_tx	pelvis_ty	pelvis_tz	hip_flexion_r	hip_adduction_r	hip_rotation_r	knee_angle_r	knee_angle_r_beta	ankle_angle_r	subtalar_angle_r	mtp_angle_r	hip_flexion_l	hip_adduction_l	hip_rotation_l	knee_angle_l	knee_angle_l_beta	ankle_angle_l	subtalar_angle_l	mtp_angle_l	lumbar_extension	lumbar_bending	lumbar_rotation	arm_flex_r	arm_add_r	arm_rot_r	elbow_flex_r	pro_sup_r	wrist_flex_r	wrist_dev_r	arm_flex_l	arm_add_l	arm_rot_l	elbow_flex_l	pro_sup_l	wrist_flex_l	wrist_dev_l
      0.00000000	     -4.72160835	     -3.84550129	     -5.79076752	      1.15395720	      1.01285273	     -0.56624129	     28.67496385	      5.70461281	      2.05419197	     11.84342969	     11.84342969	      0.65225577	      0.00000000	      0.00000000	    -14.91347182	     -0.33028568	     -9.76589883	     15.52566853	     15.52566853	    -12.31165512	      0.00000000	      0.00000000	    -13.63039744	      6.85786473	     -4.06368075	    -15.00000005	    -19.99999993	    -15.00000004	    119.99999992	     89.99827284	      0.00000000	      0.00000000	    -14.99999991	    -19.99999953	    -14.99999998	    119.99999993	     89.99827282	      0.00000000	      0.00000000
      0.01000000	     -4.75264983	     -3.71072656	     -6.14035963	      1.15520107	      1.01350505	     -0.56495407	     28.54115690	      6.24329103	      2.25973747	     10.19598715	     10.19598715	      0.44813983	      0.00000000	      0.00000000	    -15.48079517	     -0.39303823	     -9.88305676	     16.72142246	     16.72142246	    -15.11678992	      0.00000000	      0.00000000	    -13.48737184	      6.99277295	     -4.14930700	    -15.00000005	    -19.99999993	    -15.00000004	    119.99999992	     89.99827284	      0.00000000	      0.00000000	    -14.99999991	    -19.99999953	    -14.99999998	    119.99999993	     89.99827282	      0.00000000	      0.00000000
      0.02000000	     -4.68332361	     -3.56546277	     -6.31326486	      1.15601782	      1.01354711	     -0.56386603	     28.32745311	      6.64300857	      2.07480668	      9.47136677	      9.47136677	      0.45757937	      0.00000000	      0.00000000	    -15.61531962	     -0.50794232	     -9.36152928	     18.79434219	     18.79434219	    -17.21616013	      0.00000000	      0.00000000	    -13.46911022	      7.03595092	     -4.26389789	    -15.00000005	    -19.99999993	    -15.00000004	    119.99999992	     89.99827284	      0.00000000	      0.00000000	    -14.99999991	    -19.99999953	    -14.99999998	    119.99999993	     89.99827282	      0.00000000	      0.00000000
      0.03000000	     -4.57981204	     -3.46589904	     -6.37714208	      1.15696230	      1.01285961	     -0.56307453	     28.07310772	      6.96924240	      1.55278975	      9.68088238	      9.68088238	      0.63136731	      0.00000000	      0.00000000	    -15.37497528	     -0.67957633	     -8.42778559	     21.57156258	     21.57156258	    -18.15192581	      0.00000000	      0.00000000	    -13.48469172	      7.12689819	     -4.37001735	    -15.00000005	    -19.99999993	    -15.00000004	    119.99999992	     89.99827284	      0.00000000	      0.00000000	    -14.99999991	    -19.99999953	    -14.99999998	    119.99999993	     89.99827282	      0.00000000	      0.00000000
      0.04000000	     -4.27099500	     -3.46345578	     -6.14465274	      1.15790903	      1.01164832	     -0.56266952	     27.52441140	      7.20286142	      0.68143903	     10.63462121	     10.63462121	      0.99127483	      0.00000000	      0.00000000	    -15.01148432	     -0.99008249	     -6.95666873	     24.81483601	     24.81483601	    -17.39167986	      0.00000000	      0.00000000	    -13.72745159	      7.29403638	     -4.67365655	    -15.00000005	    -19.99999993	    -15.00000004	    119.99999992	     89.99827284	      0.00000000	      0.00000000	    -14.99999991	    -19.99999953	    -14.99999998	    119.99999993	     89.99827282	      0.00000000	      0.00000000
      0.05000000	     -3.90282555	     -3.24806848	     -5.98324540	      1.15832605	      1.00940619	     -0.56228058	     26.97757780	      7.21017238	      0.21048679	     12.40605647	     12.40605647	      1.75217735	      0.00000000	      0.00000000	    -14.26949642	     -1.02798281	     -5.49756879	     28.58142650	     28.58142650	    -14.94683128	      0.00000000	      0.00000000	    -14.04639562	      7.15348204	     -4.87377204	    -15.00000005	    -19.99999993	    -15.00000004	    119.99999992	     89.99827284	      0.00000000	      0.00000000	    -14.99999991	    -19.99999953	    -14.99999998	    119.99999993	     89.99827282	      0.00000000	      0.00000000
      0.06000000	     -3.52520172	     -3.06183215	     -5.58256564	      1.15905843	      1.00632769	     -0.56225070	     26.26512037	      7.13148836	     -0.11005888	     14.53897444	     14.53897444	      2.29369954	      0.00000000	      0.00000000	    -13.28366547	     -1.14492140	     -3.97415546	     32.49878410	     32.49878410	    -12.39702525	      0.00000000	      0.00000000	    -14.31567161	      7.06369644	     -5.20783169	    -15.00000005	    -19.99999993	    -15.00000004	    119.99999992	     89.99827284	      0.00000000	      0.00000000	    -14.99999991	    -19.99999953	    -14.99999998	    119.99999993	     89.99827282	      0.00000000	      0.00000000
